<svg width="36" height="36" viewBox="0 0 36 36" fill="none" xmlns="http://www.w3.org/2000/svg">
<path d="M26.4884 9.26526C26.1347 8.91158 25.5789 8.91158 25.2505 9.26526C24.8968 9.61895 24.8968 10.1747 25.2505 10.5032C27.1705 12.4484 28.2316 15 28.2316 17.7537C28.2316 20.4821 27.1705 23.059 25.2253 24.979C24.8716 25.3326 24.8716 25.8884 25.2253 26.2168C25.4021 26.3937 25.6295 26.4695 25.8568 26.4695C26.0842 26.4695 26.3116 26.3937 26.4884 26.2168C28.7621 23.9432 30 20.9368 30 17.7284C30 14.5453 28.7621 11.5137 26.4884 9.26526Z" fill="black"/>
<path d="M7.76842 17.7538C7.76842 15.0002 8.82947 12.4486 10.7747 10.5286C11.1284 10.1749 11.1284 9.6191 10.7747 9.29068C10.4211 8.93699 9.86526 8.93699 9.53684 9.29068C7.23789 11.5138 6 14.5454 6 17.7538C6 20.9623 7.23789 23.9686 9.51158 26.2423C9.68842 26.4191 9.91579 26.4949 10.1432 26.4949C10.3705 26.4949 10.5979 26.4191 10.7747 26.2423C11.1284 25.8886 11.1284 25.3328 10.7747 25.0044C8.82947 23.0591 7.76842 20.4823 7.76842 17.7538Z" fill="black"/>
<path d="M23.5074 12.2463C23.1537 11.8926 22.5979 11.8926 22.2695 12.2463C21.9158 12.6 21.9158 13.1558 22.2695 13.4842C23.4063 14.6211 24.0379 16.1368 24.0379 17.7284C24.0379 19.32 23.4063 20.8358 22.2695 21.9726C21.9158 22.3263 21.9158 22.8821 22.2695 23.2105C22.4463 23.3874 22.6737 23.4632 22.9011 23.4632C23.1284 23.4632 23.3558 23.3874 23.5326 23.2105C24.9979 21.7453 25.8063 19.8 25.8063 17.7284C25.7811 15.6821 24.9726 13.7116 23.5074 12.2463Z" fill="black"/>
<path d="M11.9874 17.7537C11.9874 16.1368 12.6189 14.6463 13.7558 13.5095C14.1095 13.1558 14.1095 12.6 13.7558 12.2716C13.4021 11.9179 12.8463 11.9179 12.5179 12.2716C11.0526 13.7368 10.2442 15.6821 10.2442 17.7789C10.2442 19.8505 11.0779 21.8463 12.5432 23.2863C12.72 23.4632 12.9474 23.539 13.1747 23.539C13.4021 23.539 13.6295 23.4632 13.8063 23.2863C14.16 22.9326 14.1347 22.3768 13.8063 22.0484C12.6189 20.8863 11.9874 19.3453 11.9874 17.7537Z" fill="black"/>
<path d="M16.9895 14.4442C16.459 14.0905 15.7516 14.4695 15.7516 15.1011V20.3811C15.7516 21.0126 16.459 21.3916 16.9895 21.0379L20.9558 18.3853C21.4358 18.0568 21.4358 17.3747 20.9558 17.0463L16.9895 14.4442Z" fill="black"/>
</svg>
